:version 1.10
:name ASF
:units
  mass 1
  length 1
  angle deg
:documentation
  ASF file generated by Kaydara
:root
  axis xyz
  order  tx ty tz rx ry rz
  position 0 0 0
  orientation 0 0 0
:bonedata
  begin
    id 1
    name abdomenDummy
    direction 1 -1.27917e-005 -1.26829e-007
    length 1.79048
    axis 0 0 0 xyz
  end
  begin
    id 2
    name abdomen
    direction 0.987238 0.159249 -9.68575e-008
    length 8.61378
    axis 2.73208e-005 5.54953e-006 9.16328 xyz
    dof rx ry rz
  end
  begin
    id 3
    name chest
    direction 0 0 0
    length 0
    axis 2.65071e-005 8.63688e-006 2.59796 xyz
    dof rx ry rz
  end
  begin
    id 4
    name neckDummyDummy
    direction 0.998972 0.0453274 -1.50742e-007
    length 9.56202
    axis 2.65071e-005 8.63688e-006 2.59796 xyz
  end
  begin
    id 5
    name neckDummy
    direction 0.99977 0.0214525 -1.61748e-007
    length 1.93574
    axis 2.62932e-005 9.26758e-006 1.22924 xyz
    dof rx ry rz
  end
  begin
    id 6
    name neck
    direction 0.99928 -0.0379406 -1.88707e-007
    length 3.70367
    axis 2.56966e-005 1.08122e-005 -2.17436 xyz
    dof rx ry rz
  end
  begin
    id 7
    name head
    direction 0.992648 -0.121037 -2.25408e-007
    length 6.35158
    axis 2.47068e-005 1.29149e-005 -6.95196 xyz
    dof rx ry rz
  end
  begin
    id 8
    name figureHair
    direction -0.86681 -0.498639 -7.83376e-008
    length 8.29884
    axis -2.7515e-005 4.48842e-006 -150.09 xyz
    dof rx ry rz
  end
  begin
    id 9
    name lCollarDummy
    direction 0.994611 0.0451299 -0.0933417
    length 9.60395
    axis 2.65071e-005 8.63688e-006 2.59796 xyz
  end
  begin
    id 10
    name lCollar
    direction 0.0384146 0.00127577 -0.999261
    length 6.95318
    axis 90.4899 87.7973 1.90202 xyz
    dof rx ry rz
  end
  begin
    id 11
    name lShldr
    direction -0.030648 0.0920515 -0.995282
    length 9.61158
    axis -161.793 84.4324 108.415 xyz
    dof rx ry rz
  end
  begin
    id 12
    name lForeArm
    direction 0.000163956 -0.0977586 -0.99521
    length 8.6068
    axis 0.134773 84.3899 -89.8525 xyz
    dof rx ry rz
  end
  begin
    id 13
    name lHand
    direction -0.0190533 -0.1444 -0.989336
    length 7.61479
    axis -7.3729 81.6249 -97.517 xyz
    dof rx ry rz
  end
  begin
    id 14
    name rCollarDummy
    direction 0.994871 0.0442627 0.0909555
    length 9.60761
    axis 2.65071e-005 8.63688e-006 2.59796 xyz
  end
  begin
    id 15
    name rCollar
    direction 0.0334251 -4.74072e-007 0.999441
    length 6.97058
    axis -178.152 -88.0845 -0.000674207 xyz
    dof rx ry rz
  end
  begin
    id 16
    name rShldr
    direction -0.026922 0.0719509 0.997045
    length 9.60913
    axis 71.2822 -85.594 110.514 xyz
    dof rx ry rz
  end
  begin
    id 17
    name rForeArm
    direction 0.00134679 -0.118986 0.992895
    length 8.57176
    axis -88.7923 -83.1659 -89.3516 xyz
    dof rx ry rz
  end
  begin
    id 18
    name rHand
    direction -0.0185183 -0.0768601 0.99687
    length 7.69687
    axis -74.5596 -85.4655 -103.546 xyz
    dof rx ry rz
  end
  begin
    id 19
    name lThighDummy
    direction -0.236086 -0.0385456 -0.970967
    length 4.99155
    axis 0 0 0 xyz
  end
  begin
    id 20
    name lThigh
    direction -0.993968 0.0148998 -0.108653
    length 13.572
    axis -91.4001 6.23768 179.141 xyz
    dof rx ry rz
  end
  begin
    id 21
    name lShin
    direction -0.992341 0.0904576 -0.0841193
    length 18.5862
    axis -91.4558 4.82538 174.792 xyz
    dof rx ry rz
  end
  begin
    id 22
    name lFoot
    direction 0.0209381 -0.999771 -0.00453005
    length 8.44474
    axis 4.86759 0.259522 -88.8001 xyz
    dof rx ry rz
  end
  begin
    id 23
    name rThighDummy
    direction -0.236086 -0.0385456 0.970967
    length 4.99155
    axis 0 0 0 xyz
  end
  begin
    id 24
    name rThigh
    direction -0.993968 0.0148995 0.108653
    length 13.5721
    axis -89.7059 -6.2377 179.141 xyz
    dof rx ry rz
  end
  begin
    id 25
    name rShin
    direction -0.9925 0.0899962 0.0827255
    length 18.6716
    axis -89.2745 -4.74775 174.819 xyz
    dof rx ry rz
  end
  begin
    id 26
    name rFoot
    direction 0.0301721 -0.999545 9.70865e-005
    length 8.45013
    axis -2.50066e-005 -0.00555246 -88.271 xyz
    dof rx ry rz
  end
:hierarchy
  begin
    root abdomenDummy lThighDummy rThighDummy
    abdomenDummy abdomen
    abdomen chest
    chest neckDummyDummy lCollarDummy rCollarDummy
    neckDummyDummy neckDummy
    neckDummy neck
    neck head
    head figureHair
    lCollarDummy lCollar
    lCollar lShldr
    lShldr lForeArm
    lForeArm lHand
    rCollarDummy rCollar
    rCollar rShldr
    rShldr rForeArm
    rForeArm rHand
    lThighDummy lThigh
    lThigh lShin
    lShin lFoot
    rThighDummy rThigh
    rThigh rShin
    rShin rFoot
  end

:SAMPLES-PER-SECOND 25
:FULLY-SPECIFIED
:DEGREES
1
root  77.7729 36.4248 1.3052 175.748 0.964598 90.4878
abdomen  0.4955 2.55745 -2.85354
chest  -0.143207 -2.4916 -0.208451
neckDummy  3.03321e-021 0 6.73878e-016
neck  -1.60483 2.44987 1.95307
head  -2.36311 -4.25535 -4.72732
figureHair  0 0 -1.04948e-014
lCollar  -3.38943e-016 -6.49156e-016 -7.51406e-014
lShldr  -17.5921 5.06391 -32.6249
lForeArm  13.6205 -0.962008 -0.219052
lHand  0.254698 0.195082 5.2986
rCollar  2.67893e-016 -5.20816e-014 1.63997e-015
rShldr  21.376 21.4454 -6.43426
rForeArm  -5.90986 1.10496 3.49821
rHand  0.494126 -10.862 -0.208936
lThigh  -4.67209 -6.36602 -4.34448
lShin  -14.2757 5.35403 -5.07045
lFoot  8.63722 -0.870402 -1.23493
rThigh  9.31702 -7.02167 1.39978
rShin  8.61895 8.77121 5.1986
rFoot  -8.86945 1.06438 -0.120139
2
root  77.766 36.4248 1.32308 175.714 0.982072 90.3957
abdomen  0.581017 2.81933 -3.40548
chest  -0.159988 -2.88204 0.559207
neckDummy  3.03321e-021 0 6.73878e-016
neck  -1.5216 2.76675 1.89508
head  -2.37292 -4.50669 -4.91478
figureHair  0 0 -1.04948e-014
lCollar  -3.38943e-016 -6.49156e-016 -7.51406e-014
lShldr  -17.2582 5.41472 -32.7264
lForeArm  13.5558 -1.27947 -0.30231
lHand  0.254698 0.195082 5.2986
rCollar  2.67893e-016 -5.20816e-014 1.63997e-015
rShldr  21.3835 21.2933 -6.66703
rForeArm  -6.23241 1.12324 3.62793
rHand  0.494327 -10.7153 -0.303153
lThigh  -4.65832 -6.22445 -4.38149
lShin  -14.2858 5.29077 -5.09564
lFoot  8.68769 -0.876491 -1.22222
rThigh  9.37044 -6.92409 1.33918
rShin  8.53104 8.77318 5.19709
rFoot  -8.83389 1.06267 -0.103951
3
root  77.755 36.4246 1.36138 175.737 0.996739 90.3196
abdomen  0.547171 2.96587 -3.64019
chest  -0.26017 -3.13443 0.908576
neckDummy  3.03321e-021 0 6.73878e-016
neck  -1.42425 3.20325 1.97907
head  -2.40683 -4.78127 -5.09464
figureHair  0 0 -1.04948e-014
lCollar  -3.38943e-016 -6.49156e-016 -7.51406e-014
lShldr  -16.9704 5.86628 -32.8473
lForeArm  13.2585 -1.62566 -0.395083
lHand  0.254698 0.195082 5.2986
rCollar  2.67893e-016 -5.20816e-014 1.63997e-015
rShldr  21.6929 21.1716 -6.59621
rForeArm  -6.8749 1.08339 3.59796
rHand  0.476752 -10.4076 -0.261738
lThigh  -4.59191 -6.095 -4.47301
lShin  -14.3284 5.24497 -5.10032
lFoot  8.68405 -0.879134 -1.18326
rThigh  9.45244 -6.83059 1.23654
rShin  8.46211 8.80905 5.18975
rFoot  -8.75638 1.05662 -0.0826945
4
root  77.7536 36.4238 1.394 175.766 0.988374 90.3201
abdomen  0.42121 2.72357 -3.09742
chest  -0.290347 -2.77507 0.185502
neckDummy  3.03321e-021 0 6.73878e-016
neck  -1.27526 3.36425 2.12078
head  -2.31635 -4.83214 -5.07058
figureHair  0 0 -1.04948e-014
lCollar  -3.38943e-016 -6.49156e-016 -7.51406e-014
lShldr  -17.1445 5.86462 -32.8015
lForeArm  13.1989 -1.59187 -0.404511
lHand  0.254698 0.195082 5.2986
rCollar  2.67893e-016 -5.20816e-014 1.63997e-015
rShldr  22.046 21.2977 -6.26534
rForeArm  -7.42946 1.00056 3.3846
rHand  0.413586 -10.2741 0.263799
lThigh  -4.56917 -6.13544 -4.51823
lShin  -14.3598 5.30348 -5.10523
lFoot  8.64339 -0.879242 -1.12762
rThigh  9.49294 -6.8572 1.18139
rShin  8.44742 8.85845 5.1827
rFoot  -8.68953 1.04817 -0.0842268
5
root  77.7605 36.423 1.41296 175.765 0.973399 90.3156
abdomen  0.394179 2.50391 -2.65051
chest  -0.207552 -2.34292 -0.486961
neckDummy  3.03321e-021 0 6.73878e-016
neck  -1.20699 3.1709 2.36559
head  -2.20392 -4.82094 -4.98294
figureHair  0 0 -1.04948e-014
lCollar  -3.38943e-016 -6.49156e-016 -7.51406e-014
lShldr  -17.4289 5.5437 -32.6502
lForeArm  13.4391 -1.34408 -0.364381
lHand  0.254698 0.195082 5.2986
rCollar  2.67893e-016 -5.20816e-014 1.63997e-015
rShldr  22.0131 21.5114 -6.22759
rForeArm  -7.51574 0.994943 3.36499
rHand  0.363174 -10.3726 0.763293
lThigh  -4.61375 -6.16885 -4.50672
lShin  -14.3413 5.35709 -5.1449
lFoot  8.68955 -0.885058 -1.11355
rThigh  9.49679 -6.87813 1.16954
rShin  8.43752 8.87609 5.17133
rFoot  -8.65271 1.04258 -0.0908702
6
root  77.7649 36.4223 1.4334 175.803 0.984299 90.255
abdomen  0.446736 2.59435 -2.67857
chest  -0.154844 -2.3247 -0.504713
neckDummy  3.03321e-021 0 6.73878e-016
neck  -1.46048 2.74335 2.6816
head  -2.32074 -4.62206 -5.0468
figureHair  0 0 -1.04948e-014
lCollar  -3.38943e-016 -6.49156e-016 -7.51406e-014
lShldr  -17.404 5.31856 -32.5649
lForeArm  13.45 -1.12006 -0.336105
lHand  0.254698 0.195082 5.2986
rCollar  2.67893e-016 -5.20816e-014 1.63997e-015
rShldr  21.6921 21.5801 -6.43842
rForeArm  -6.73697 1.05488 3.49758
rHand  0.414951 -10.6992 0.41084
lThigh  -4.5888 -6.10214 -4.55346
lShin  -14.3232 5.32344 -5.15917
lFoot  8.79388 -0.892317 -1.15723
rThigh  9.51802 -6.85297 1.12689
rShin  8.45538 8.93015 5.14472
rFoot  -8.58725 1.03931 -0.0613303
7
root  77.7659 36.4215 1.45577 175.891 0.995555 90.2499
abdomen  0.41732 2.70006 -2.68508
chest  -0.204424 -2.37378 -0.379067
neckDummy  3.03321e-021 0 6.73878e-016
neck  -1.79452 2.34417 2.64559
head  -2.5052 -4.08222 -5.15621
figureHair  0 0 -1.04948e-014
lCollar  -3.38943e-016 -6.49156e-016 -7.51406e-014
lShldr  -17.2714 5.33114 -32.5428
lForeArm  13.3097 -1.01937 -0.329666
lHand  0.254698 0.195082 5.2986
rCollar  2.67893e-016 -5.20816e-014 1.63997e-015
rShldr  21.3837 21.5697 -6.5014
rForeArm  -5.56223 1.08295 3.49719
rHand  0.524286 -11.1616 -0.378023
lThigh  -4.49038 -6.10334 -4.64598
lShin  -14.3281 5.30773 -5.11234
lFoot  8.84647 -0.895936 -1.17938
rThigh  9.55359 -6.88414 1.07075
rShin  8.51536 9.02671 5.12786
rFoot  -8.51264 1.03766 -0.0143469
